<?xml version="1.0" encoding="UTF-8"?>
<!DOCTYPE svg PUBLIC "-//W3C//DTD SVG 1.1//EN" "http://www.w3.org/Graphics/SVG/1.1/DTD/svg11.dtd">
<svg xmlns="http://www.w3.org/2000/svg" version="1.1" width="647px" height="540px" style="shape-rendering:geometricPrecision; text-rendering:geometricPrecision; image-rendering:optimizeQuality; fill-rule:evenodd; clip-rule:evenodd" xmlns:xlink="http://www.w3.org/1999/xlink">
<g><path style="opacity:1" fill="#fefefe" d="M -0.5,-0.5 C 215.167,-0.5 430.833,-0.5 646.5,-0.5C 646.5,179.5 646.5,359.5 646.5,539.5C 430.833,539.5 215.167,539.5 -0.5,539.5C -0.5,359.5 -0.5,179.5 -0.5,-0.5 Z"/></g>
<g><path style="opacity:1" fill="#42c386" d="M 440.5,44.5 C 439.377,42.312 439.377,39.9787 440.5,37.5C 439.306,34.9824 438.14,34.9824 437,37.5C 436.586,37.0426 436.086,36.7093 435.5,36.5C 434.772,38.1932 433.772,39.6932 432.5,41C 433.337,42.0113 433.67,43.1779 433.5,44.5C 431.876,44.3601 430.71,45.0267 430,46.5C 427.871,45.1373 427.371,45.4706 428.5,47.5C 427.41,49.003 426.243,49.3363 425,48.5C 424.383,49.4491 424.549,50.2825 425.5,51C 423.557,54.3324 422.39,54.1658 422,50.5C 421.517,51.448 421.351,52.448 421.5,53.5C 419.473,53.3379 417.473,53.5045 415.5,54C 418.228,54.6389 418.728,55.8056 417,57.5C 416.667,57.1667 416.333,56.8333 416,56.5C 416.275,60.4832 415.275,60.4832 413,56.5C 411.829,57.8932 410.329,58.7265 408.5,59C 409.711,59.8928 409.711,60.7261 408.5,61.5C 407.28,62.7111 406.113,62.7111 405,61.5C 404.544,62.7441 405.044,63.5774 406.5,64C 403.358,66.2254 400.025,68.2254 396.5,70C 400.5,70.6667 400.5,71.3333 396.5,72C 397.654,72.9138 397.487,73.7471 396,74.5C 395.138,72.913 394.471,71.2464 394,69.5C 393.667,70.8333 393.333,72.1667 393,73.5C 392.08,73.9302 391.247,74.2635 390.5,74.5C 392.748,75.324 392.914,76.324 391,77.5C 389.092,76.9208 387.425,76.9208 386,77.5C 384.881,78.5521 384.381,79.7188 384.5,81C 382.888,81.7203 381.388,81.5536 380,80.5C 379.833,80.8333 379.667,81.1667 379.5,81.5C 380.908,82.2432 382.241,83.0766 383.5,84C 381.884,84.6152 380.551,85.6152 379.5,87C 377.888,87.7203 376.388,87.5536 375,86.5C 373.372,87.8187 373.539,89.1521 375.5,90.5C 373.655,91.3946 372.322,90.7279 371.5,88.5C 371.795,86.2646 371.461,84.2646 370.5,82.5C 364.604,77.2906 358.771,71.9572 353,66.5C 352.175,64.2992 352.675,62.4659 354.5,61C 381.178,52.3296 407.844,43.6629 434.5,35C 436.769,34.2419 438.936,34.4086 441,35.5C 441.301,38.5071 441.135,41.5071 440.5,44.5 Z"/></g>
<g><path style="opacity:1" fill="#36bd8b" d="M 436.5,64.5 C 436.672,65.4916 436.338,66.1583 435.5,66.5C 433.242,65.5527 432.075,66.5527 432,69.5C 431.311,68.6433 430.478,67.9767 429.5,67.5C 428.5,70.2513 427.333,72.918 426,75.5C 423.655,77.5136 421.655,79.847 420,82.5C 419.751,81.376 419.251,80.376 418.5,79.5C 417.304,79.8457 417.304,80.3457 418.5,81C 416.608,81.9734 414.608,82.6401 412.5,83C 413.5,83.3333 414.5,83.6667 415.5,84C 414.051,85.117 412.384,85.7837 410.5,86C 412.878,86.9745 412.544,87.6411 409.5,88C 411.301,88.3173 411.634,88.984 410.5,90C 409.551,90.6172 408.718,90.4506 408,89.5C 407.5,90.6667 406.667,91.5 405.5,92C 407.301,92.3173 407.634,92.984 406.5,94C 405.034,94.6355 403.7,95.4688 402.5,96.5C 400.471,95.3707 400.137,95.8707 401.5,98C 398.52,99.6337 395.52,101.3 392.5,103C 393.167,103.333 393.833,103.667 394.5,104C 393.299,104.903 392.465,106.069 392,107.5C 390.192,107.112 388.525,107.112 387,107.5C 385.235,110.709 383.235,113.709 381,116.5C 379.15,114.038 377.983,114.538 377.5,118C 378.5,118.333 379.5,118.667 380.5,119C 377.848,120.065 376.015,121.898 375,124.5C 374.667,123.833 374.333,123.167 374,122.5C 372.956,123.623 372.29,124.956 372,126.5C 371.667,125.5 371.333,124.5 371,123.5C 370.355,124.646 369.522,125.646 368.5,126.5C 369.711,127.72 369.711,128.887 368.5,130C 366.527,130.495 364.527,130.662 362.5,130.5C 362.034,132.201 362.034,133.701 362.5,135C 361.151,135.772 360.318,136.939 360,138.5C 359.667,138.167 359.333,137.833 359,137.5C 356.646,138.736 354.646,140.403 353,142.5C 352.667,142.167 352.333,141.833 352,141.5C 351.316,142.784 351.483,143.951 352.5,145C 351.464,146.617 350.297,146.784 349,145.5C 348.89,147.848 347.723,149.348 345.5,150C 345.616,151.268 345.949,152.602 346.5,154C 344.833,153.667 343.167,153.333 341.5,153C 340.809,154.067 340.309,155.234 340,156.5C 339.667,156.167 339.333,155.833 339,155.5C 338.667,156.833 338.333,158.167 338,159.5C 337.333,160.833 336.667,160.833 336,159.5C 336.222,161.456 337.055,163.29 338.5,165C 336.086,163.688 333.586,163.188 331,163.5C 329.221,165.017 329.721,165.851 332.5,166C 331.833,166.333 331.167,166.667 330.5,167C 331.833,167.667 331.833,168.333 330.5,169C 329.128,169.402 327.795,169.902 326.5,170.5C 325.808,169.975 325.308,169.308 325,168.5C 323.349,170.402 323.016,172.402 324,174.5C 320.89,173.327 320.723,173.827 323.5,176C 322.551,176.617 321.718,176.451 321,175.5C 320.667,176.167 320.333,176.833 320,177.5C 319.259,176.359 318.425,176.359 317.5,177.5C 317.215,180.319 315.382,182.319 312,183.5C 311.667,183.167 311.333,182.833 311,182.5C 311,183.833 311,185.167 311,186.5C 310.667,186.167 310.333,185.833 310,185.5C 306.768,188.87 302.934,191.37 298.5,193C 299.672,193.419 300.672,194.085 301.5,195C 299.905,194.383 298.572,194.716 297.5,196C 297.833,196.333 298.167,196.667 298.5,197C 296.999,198.252 295.332,199.252 293.5,200C 293.957,200.414 294.291,200.914 294.5,201.5C 292.483,202.219 290.817,203.386 289.5,205C 290.494,207.918 289.994,208.084 288,205.5C 286.667,207.167 285.333,208.833 284,210.5C 283.667,210.167 283.333,209.833 283,209.5C 282.691,210.766 282.191,211.933 281.5,213C 281.833,213.333 282.167,213.667 282.5,214C 280.392,214.36 278.392,215.027 276.5,216C 277.167,216.333 277.833,216.667 278.5,217C 277.331,218.836 275.664,220.002 273.5,220.5C 272.749,221.376 272.249,222.376 272,223.5C 270.047,219.578 268.881,219.912 268.5,224.5C 266.799,224.966 265.299,224.966 264,224.5C 262.782,226.019 261.282,227.186 259.5,228C 260.624,228.249 261.624,228.749 262.5,229.5C 262.062,230.506 261.396,230.506 260.5,229.5C 259.335,230.491 258.168,231.491 257,232.5C 255.204,232.087 253.537,232.087 252,232.5C 251.751,235.177 250.751,237.51 249,239.5C 247.048,238.3 245.548,238.8 244.5,241C 243.167,241.333 241.833,241.667 240.5,242C 240.833,242.333 241.167,242.667 241.5,243C 239.68,243.979 238.513,245.479 238,247.5C 237.667,246.833 237.333,246.167 237,245.5C 235.856,247.917 234.19,248.584 232,247.5C 230.188,249.552 228.855,251.885 228,254.5C 227.751,253.376 227.251,252.376 226.5,251.5C 224.734,253.449 225.401,254.949 228.5,256C 226.031,257.822 223.697,258.989 221.5,259.5C 218.703,257.205 216.036,254.705 213.5,252C 216.338,249.748 219.338,247.748 222.5,246C 222.167,245.667 221.833,245.333 221.5,245C 223.8,244.021 226.133,242.688 228.5,241C 229.211,239.745 230.044,238.579 231,237.5C 232.587,238.727 233.921,238.394 235,236.5C 235.718,237.451 236.551,237.617 237.5,237C 238.833,235.667 238.833,234.333 237.5,233C 239.333,232.5 240.5,231.333 241,229.5C 243.647,230.464 246.147,229.964 248.5,228C 248.167,227.667 247.833,227.333 247.5,227C 253.285,223.703 258.618,219.87 263.5,215.5C 263.291,214.914 262.957,214.414 262.5,214C 263.742,213.689 264.742,214.189 265.5,215.5C 267.518,213.65 269.351,211.65 271,209.5C 271.333,209.833 271.667,210.167 272,210.5C 273.765,207.527 276.265,205.36 279.5,204C 278.663,202.989 278.33,201.822 278.5,200.5C 281.726,199.96 285.059,198.626 288.5,196.5C 287.718,194.671 288.384,193.171 290.5,192C 290.167,191.667 289.833,191.333 289.5,191C 291.167,190 292.833,189 294.5,188C 293.5,187.667 292.5,187.333 291.5,187C 293.389,184.806 295.556,184.306 298,185.5C 299.257,183.254 301.09,181.921 303.5,181.5C 303.579,180.07 303.246,178.736 302.5,177.5C 303.727,176.41 304.56,175.076 305,173.5C 305.249,174.624 305.749,175.624 306.5,176.5C 307.696,176.154 307.696,175.654 306.5,175C 307.667,174.5 308.5,173.667 309,172.5C 309.333,172.833 309.667,173.167 310,173.5C 311.617,172.149 312.784,170.482 313.5,168.5C 316.692,168.139 318.859,166.472 320,163.5C 321.073,164.28 322.24,164.113 323.5,163C 321.071,162.549 320.904,161.715 323,160.5C 323.414,160.957 323.914,161.291 324.5,161.5C 325.711,160.726 325.711,159.893 324.5,159C 325.416,158.626 326.25,158.126 327,157.5C 327.423,158.956 328.256,159.456 329.5,159C 328.448,157.284 329.114,156.284 331.5,156C 331.835,154.836 331.835,153.503 331.5,152C 333.577,151.193 335.411,150.026 337,148.5C 337.333,148.833 337.667,149.167 338,149.5C 339.145,147.749 339.645,145.916 339.5,144C 341.608,143.64 343.608,142.973 345.5,142C 345.167,141.667 344.833,141.333 344.5,141C 351.793,133.375 359.46,126.042 367.5,119C 368.448,118.517 369.448,118.351 370.5,118.5C 371.933,113.481 374.933,109.647 379.5,107C 378.549,106.282 378.383,105.449 379,104.5C 379.718,105.451 380.551,105.617 381.5,105C 380.549,104.282 380.383,103.449 381,102.5C 383.219,100.28 385.719,98.4471 388.5,97C 387.5,96.6667 386.5,96.3333 385.5,96C 388.616,94.5512 391.116,92.3845 393,89.5C 394.487,90.2529 394.654,91.0862 393.5,92C 395.714,92.4597 396.381,91.793 395.5,90C 398.997,88.5893 401.664,86.256 403.5,83C 402.66,81.3335 403.16,81.1669 405,82.5C 406.349,80.0657 408.182,79.2324 410.5,80C 411.26,78.5589 411.926,77.0589 412.5,75.5C 413.934,74.7702 415.1,73.7702 416,72.5C 416.333,72.8333 416.667,73.1667 417,73.5C 419.913,70.9126 423.08,68.746 426.5,67C 425.451,66.5078 424.451,66.6744 423.5,67.5C 422.304,67.1543 422.304,66.6543 423.5,66C 424.766,65.6905 425.933,65.1905 427,64.5C 428.666,65.3402 428.833,64.8402 427.5,63C 428.5,62.1667 429.5,61.3333 430.5,60.5C 429.145,59.3247 429.312,58.3247 431,57.5C 431.333,57.8333 431.667,58.1667 432,58.5C 432.908,56.5614 434.408,55.5614 436.5,55.5C 435.632,58.6727 435.632,61.6727 436.5,64.5 Z"/></g>
<g><path style="opacity:1" fill="#3abf8a" d="M 440.5,37.5 C 439.377,39.9787 439.377,42.312 440.5,44.5C 439.169,51.1601 437.835,57.8267 436.5,64.5C 435.632,61.6727 435.632,58.6727 436.5,55.5C 434.408,55.5614 432.908,56.5614 432,58.5C 431.667,58.1667 431.333,57.8333 431,57.5C 429.312,58.3247 429.145,59.3247 430.5,60.5C 429.5,61.3333 428.5,62.1667 427.5,63C 428.833,64.8402 428.666,65.3402 427,64.5C 425.933,65.1905 424.766,65.6905 423.5,66C 422.304,66.6543 422.304,67.1543 423.5,67.5C 424.451,66.6744 425.451,66.5078 426.5,67C 423.08,68.746 419.913,70.9126 417,73.5C 416.667,73.1667 416.333,72.8333 416,72.5C 415.1,73.7702 413.934,74.7702 412.5,75.5C 411.926,77.0589 411.26,78.5589 410.5,80C 408.182,79.2324 406.349,80.0657 405,82.5C 403.16,81.1669 402.66,81.3335 403.5,83C 401.664,86.256 398.997,88.5893 395.5,90C 396.381,91.793 395.714,92.4597 393.5,92C 394.654,91.0862 394.487,90.2529 393,89.5C 391.116,92.3845 388.616,94.5512 385.5,96C 386.5,96.3333 387.5,96.6667 388.5,97C 385.719,98.4471 383.219,100.28 381,102.5C 380.383,103.449 380.549,104.282 381.5,105C 380.551,105.617 379.718,105.451 379,104.5C 378.383,105.449 378.549,106.282 379.5,107C 374.933,109.647 371.933,113.481 370.5,118.5C 369.448,118.351 368.448,118.517 367.5,119C 359.46,126.042 351.793,133.375 344.5,141C 344.833,141.333 345.167,141.667 345.5,142C 343.608,142.973 341.608,143.64 339.5,144C 339.645,145.916 339.145,147.749 338,149.5C 337.667,149.167 337.333,148.833 337,148.5C 335.411,150.026 333.577,151.193 331.5,152C 331.835,153.503 331.835,154.836 331.5,156C 329.114,156.284 328.448,157.284 329.5,159C 328.256,159.456 327.423,158.956 327,157.5C 326.25,158.126 325.416,158.626 324.5,159C 325.711,159.893 325.711,160.726 324.5,161.5C 323.914,161.291 323.414,160.957 323,160.5C 320.904,161.715 321.071,162.549 323.5,163C 322.24,164.113 321.073,164.28 320,163.5C 318.859,166.472 316.692,168.139 313.5,168.5C 312.784,170.482 311.617,172.149 310,173.5C 309.667,173.167 309.333,172.833 309,172.5C 308.5,173.667 307.667,174.5 306.5,175C 307.696,175.654 307.696,176.154 306.5,176.5C 305.749,175.624 305.249,174.624 305,173.5C 304.56,175.076 303.727,176.41 302.5,177.5C 303.246,178.736 303.579,180.07 303.5,181.5C 301.09,181.921 299.257,183.254 298,185.5C 295.556,184.306 293.389,184.806 291.5,187C 292.5,187.333 293.5,187.667 294.5,188C 292.833,189 291.167,190 289.5,191C 289.833,191.333 290.167,191.667 290.5,192C 288.384,193.171 287.718,194.671 288.5,196.5C 285.059,198.626 281.726,199.96 278.5,200.5C 278.33,201.822 278.663,202.989 279.5,204C 276.265,205.36 273.765,207.527 272,210.5C 271.667,210.167 271.333,209.833 271,209.5C 269.351,211.65 267.518,213.65 265.5,215.5C 264.742,214.189 263.742,213.689 262.5,214C 262.957,214.414 263.291,214.914 263.5,215.5C 258.618,219.87 253.285,223.703 247.5,227C 247.833,227.333 248.167,227.667 248.5,228C 246.147,229.964 243.647,230.464 241,229.5C 240.5,231.333 239.333,232.5 237.5,233C 238.833,234.333 238.833,235.667 237.5,237C 236.551,237.617 235.718,237.451 235,236.5C 233.921,238.394 232.587,238.727 231,237.5C 230.044,238.579 229.211,239.745 228.5,241C 226.133,242.688 223.8,244.021 221.5,245C 221.833,245.333 222.167,245.667 222.5,246C 219.338,247.748 216.338,249.748 213.5,252C 216.036,254.705 218.703,257.205 221.5,259.5C 223.401,261.796 225.734,263.629 228.5,265C 228.272,265.399 227.938,265.565 227.5,265.5C 225.745,264.928 224.078,264.094 222.5,263C 213.964,254.632 205.631,246.132 197.5,237.5C 200.444,238.868 203.277,241.201 206,244.5C 207.512,242.043 208.846,242.043 210,244.5C 210.635,243.034 211.469,241.7 212.5,240.5C 211.509,238.877 212.176,237.877 214.5,237.5C 215.086,237.709 215.586,238.043 216,238.5C 217.884,237.023 219.884,235.69 222,234.5C 221.57,232.873 221.404,231.373 221.5,230C 224.834,228.788 227.334,229.621 229,232.5C 230.429,229.802 229.595,227.635 226.5,226C 227.5,225.667 228.5,225.333 229.5,225C 230.061,223.434 229.394,222.101 227.5,221C 231.039,219.496 234.705,219.163 238.5,220C 237.66,221.666 238.16,221.833 240,220.5C 240.333,221.5 240.667,222.5 241,223.5C 242.279,220.888 243.945,218.555 246,216.5C 246.333,217.167 246.667,217.833 247,218.5C 248.932,216.962 251.099,215.795 253.5,215C 253.381,213.719 253.881,212.552 255,211.5C 255.451,213.929 256.285,214.096 257.5,212C 257.235,210.281 256.735,208.448 256,206.5C 257.784,209.003 259.451,209.003 261,206.5C 261.333,207.167 261.667,207.833 262,208.5C 262.879,205.654 264.546,204.987 267,206.5C 268.786,203.711 270.952,201.211 273.5,199C 272.346,198.086 272.513,197.253 274,196.5C 277.474,197.928 277.974,197.428 275.5,195C 276.833,193.667 278.167,192.333 279.5,191C 280.784,190.316 281.951,190.483 283,191.5C 283.576,189.623 283.409,187.789 282.5,186C 282.833,185.5 283.167,185 283.5,184.5C 284.451,185.326 285.451,185.492 286.5,185C 285.253,183.506 285.253,182.006 286.5,180.5C 287.768,181.428 289.101,181.595 290.5,181C 289.424,179.274 289.257,177.441 290,175.5C 290.914,179.185 291.581,178.852 292,174.5C 292.333,175.5 292.667,176.5 293,177.5C 293.609,175.202 295.275,173.202 298,171.5C 298.725,173.158 299.892,173.658 301.5,173C 299.579,171.969 299.579,170.469 301.5,168.5C 302.965,169.609 303.965,169.109 304.5,167C 303.833,166.333 303.167,165.667 302.5,165C 306.697,166.481 309.197,164.981 310,160.5C 311.268,160.616 312.602,160.949 314,161.5C 315.167,160.333 316.333,159.167 317.5,158C 317.596,156.627 317.43,155.127 317,153.5C 318.049,154.517 319.216,154.684 320.5,154C 320.167,153.667 319.833,153.333 319.5,153C 320.701,152.097 321.535,150.931 322,149.5C 323.073,150.28 324.24,150.113 325.5,149C 324.167,148.333 324.167,147.667 325.5,147C 325,146.833 324.5,146.667 324,146.5C 322.578,147.205 321.245,147.539 320,147.5C 320.303,143.664 321.803,142.997 324.5,145.5C 326.405,144.935 328.071,143.935 329.5,142.5C 330.251,143.376 330.751,144.376 331,145.5C 331.701,143.238 332.868,142.238 334.5,142.5C 333.189,141.742 332.689,140.742 333,139.5C 333.333,139.833 333.667,140.167 334,140.5C 335.171,139.107 336.671,138.273 338.5,138C 338.167,137.667 337.833,137.333 337.5,137C 338.931,136.535 340.097,135.701 341,134.5C 341.333,134.833 341.667,135.167 342,135.5C 343.873,133.61 344.706,131.61 344.5,129.5C 346.627,131.617 346.96,130.951 345.5,127.5C 346,127.167 346.5,126.833 347,126.5C 348.393,127.615 349.893,128.115 351.5,128C 351.043,127.586 350.709,127.086 350.5,126.5C 351.5,125.833 352.5,125.167 353.5,124.5C 352.284,123.904 350.951,123.737 349.5,124C 350.469,122.242 351.636,121.742 353,122.5C 353.617,121.551 353.451,120.718 352.5,120C 354.419,118.066 355.919,118.233 357,120.5C 358.113,119.24 358.28,118.073 357.5,117C 358.449,116.383 359.282,116.549 360,117.5C 361.113,116.24 361.28,115.073 360.5,114C 361.126,113.25 361.626,112.416 362,111.5C 362.761,115.251 363.928,115.417 365.5,112C 364.833,111.667 364.167,111.333 363.5,111C 364.938,110.781 366.271,110.281 367.5,109.5C 366.359,108.575 366.359,107.741 367.5,107C 368.784,106.316 369.951,106.483 371,107.5C 371.309,106.234 371.809,105.067 372.5,104C 371.044,103.577 370.544,102.744 371,101.5C 372,102.833 373,102.833 374,101.5C 374.451,103.929 375.285,104.096 376.5,102C 376.335,100.883 376.002,99.7164 375.5,98.5C 376.531,97.2997 377.365,95.9663 378,94.5C 381.047,97.3099 382.38,96.6432 382,92.5C 381.167,91.6667 380.333,90.8333 379.5,90C 381.543,89.0699 383.376,88.5699 385,88.5C 385.667,89.8333 386.333,91.1667 387,92.5C 386.449,89.2062 387.449,86.2062 390,83.5C 390.718,84.4506 391.551,84.6172 392.5,84C 391.049,81.9643 391.549,80.1309 394,78.5C 395.709,81.1156 397.876,82.1156 400.5,81.5C 399.5,80.8333 398.5,80.1667 397.5,79.5C 397.667,79.1667 397.833,78.8333 398,78.5C 399.799,78.7205 401.632,79.0539 403.5,79.5C 404.59,78.6086 404.59,77.6086 403.5,76.5C 405.113,75.5726 406.779,74.7393 408.5,74C 406.343,72.9153 406.176,71.7487 408,70.5C 408.333,71.1667 408.667,71.8333 409,72.5C 411.46,71.0422 413.627,69.2089 415.5,67C 414.529,65.7964 413.529,65.2964 412.5,65.5C 414.378,64.3578 416.212,63.3578 418,62.5C 419.368,59.8137 420.701,57.147 422,54.5C 422.219,55.938 422.719,57.2713 423.5,58.5C 424.711,57.7261 424.711,56.8928 423.5,56C 424.784,55.3162 425.951,55.4829 427,56.5C 427.98,55.0186 429.147,53.6853 430.5,52.5C 430.291,51.914 429.957,51.414 429.5,51C 431.992,49.3958 434.659,48.0624 437.5,47C 436.313,45.9805 435.313,44.8139 434.5,43.5C 436.991,42.4593 436.991,41.6259 434.5,41C 436.301,40.6827 436.634,40.016 435.5,39C 437.154,38.3923 438.821,37.8923 440.5,37.5 Z"/></g>
<g><path style="opacity:1" fill="#26b08b" d="M 429.5,100.5 C 427.853,110.585 425.519,120.418 422.5,130C 421.167,130.667 419.833,130.667 418.5,130C 413.63,125.298 408.963,120.465 404.5,115.5C 407.524,115.053 407.857,114.22 405.5,113C 409.5,112.333 409.5,111.667 405.5,111C 406.699,108.516 408.532,108.35 411,110.5C 410.667,109.167 410.333,107.833 410,106.5C 411.388,107.554 412.888,107.72 414.5,107C 416.359,105.442 417.859,103.609 419,101.5C 419.333,101.833 419.667,102.167 420,102.5C 421.589,100.974 423.423,99.8069 425.5,99C 425.167,98.6667 424.833,98.3333 424.5,98C 426.179,96.1742 427.346,94.0076 428,91.5C 428.374,92.4162 428.874,93.2496 429.5,94C 428.189,96.2735 428.189,98.4402 429.5,100.5 Z"/></g>
<g><path style="opacity:1" fill="#3fc289" d="M 440.5,37.5 C 438.821,37.8923 437.154,38.3923 435.5,39C 436.634,40.016 436.301,40.6827 434.5,41C 436.991,41.6259 436.991,42.4593 434.5,43.5C 435.313,44.8139 436.313,45.9805 437.5,47C 434.659,48.0624 431.992,49.3958 429.5,51C 429.957,51.414 430.291,51.914 430.5,52.5C 429.147,53.6853 427.98,55.0186 427,56.5C 425.951,55.4829 424.784,55.3162 423.5,56C 424.711,56.8928 424.711,57.7261 423.5,58.5C 422.719,57.2713 422.219,55.938 422,54.5C 420.701,57.147 419.368,59.8137 418,62.5C 416.212,63.3578 414.378,64.3578 412.5,65.5C 413.529,65.2964 414.529,65.7964 415.5,67C 413.627,69.2089 411.46,71.0422 409,72.5C 408.667,71.8333 408.333,71.1667 408,70.5C 406.176,71.7487 406.343,72.9153 408.5,74C 406.779,74.7393 405.113,75.5726 403.5,76.5C 404.59,77.6086 404.59,78.6086 403.5,79.5C 401.632,79.0539 399.799,78.7205 398,78.5C 397.833,78.8333 397.667,79.1667 397.5,79.5C 398.5,80.1667 399.5,80.8333 400.5,81.5C 397.876,82.1156 395.709,81.1156 394,78.5C 391.549,80.1309 391.049,81.9643 392.5,84C 391.551,84.6172 390.718,84.4506 390,83.5C 387.449,86.2062 386.449,89.2062 387,92.5C 386.333,91.1667 385.667,89.8333 385,88.5C 383.376,88.5699 381.543,89.0699 379.5,90C 380.333,90.8333 381.167,91.6667 382,92.5C 382.38,96.6432 381.047,97.3099 378,94.5C 377.365,95.9663 376.531,97.2997 375.5,98.5C 376.002,99.7164 376.335,100.883 376.5,102C 375.285,104.096 374.451,103.929 374,101.5C 373,102.833 372,102.833 371,101.5C 370.544,102.744 371.044,103.577 372.5,104C 371.809,105.067 371.309,106.234 371,107.5C 369.951,106.483 368.784,106.316 367.5,107C 366.359,107.741 366.359,108.575 367.5,109.5C 366.271,110.281 364.938,110.781 363.5,111C 364.167,111.333 364.833,111.667 365.5,112C 363.928,115.417 362.761,115.251 362,111.5C 361.626,112.416 361.126,113.25 360.5,114C 361.28,115.073 361.113,116.24 360,117.5C 359.282,116.549 358.449,116.383 357.5,117C 358.28,118.073 358.113,119.24 357,120.5C 355.919,118.233 354.419,118.066 352.5,120C 353.451,120.718 353.617,121.551 353,122.5C 351.636,121.742 350.469,122.242 349.5,124C 350.951,123.737 352.284,123.904 353.5,124.5C 352.5,125.167 351.5,125.833 350.5,126.5C 350.709,127.086 351.043,127.586 351.5,128C 349.893,128.115 348.393,127.615 347,126.5C 346.5,126.833 346,127.167 345.5,127.5C 346.96,130.951 346.627,131.617 344.5,129.5C 344.706,131.61 343.873,133.61 342,135.5C 341.667,135.167 341.333,134.833 341,134.5C 340.097,135.701 338.931,136.535 337.5,137C 337.833,137.333 338.167,137.667 338.5,138C 336.671,138.273 335.171,139.107 334,140.5C 333.667,140.167 333.333,139.833 333,139.5C 332.689,140.742 333.189,141.742 334.5,142.5C 332.868,142.238 331.701,143.238 331,145.5C 330.751,144.376 330.251,143.376 329.5,142.5C 328.071,143.935 326.405,144.935 324.5,145.5C 321.803,142.997 320.303,143.664 320,147.5C 321.245,147.539 322.578,147.205 324,146.5C 324.5,146.667 325,146.833 325.5,147C 324.167,147.667 324.167,148.333 325.5,149C 324.24,150.113 323.073,150.28 322,149.5C 321.535,150.931 320.701,152.097 319.5,153C 319.833,153.333 320.167,153.667 320.5,154C 319.216,154.684 318.049,154.517 317,153.5C 317.43,155.127 317.596,156.627 317.5,158C 316.333,159.167 315.167,160.333 314,161.5C 312.602,160.949 311.268,160.616 310,160.5C 309.197,164.981 306.697,166.481 302.5,165C 303.167,165.667 303.833,166.333 304.5,167C 303.965,169.109 302.965,169.609 301.5,168.5C 299.579,170.469 299.579,171.969 301.5,173C 299.892,173.658 298.725,173.158 298,171.5C 295.275,173.202 293.609,175.202 293,177.5C 292.667,176.5 292.333,175.5 292,174.5C 291.581,178.852 290.914,179.185 290,175.5C 289.257,177.441 289.424,179.274 290.5,181C 289.101,181.595 287.768,181.428 286.5,180.5C 285.253,182.006 285.253,183.506 286.5,185C 285.451,185.492 284.451,185.326 283.5,184.5C 283.167,185 282.833,185.5 282.5,186C 283.409,187.789 283.576,189.623 283,191.5C 281.951,190.483 280.784,190.316 279.5,191C 278.167,192.333 276.833,193.667 275.5,195C 277.974,197.428 277.474,197.928 274,196.5C 272.513,197.253 272.346,198.086 273.5,199C 270.952,201.211 268.786,203.711 267,206.5C 264.546,204.987 262.879,205.654 262,208.5C 261.667,207.833 261.333,207.167 261,206.5C 259.451,209.003 257.784,209.003 256,206.5C 256.735,208.448 257.235,210.281 257.5,212C 256.285,214.096 255.451,213.929 255,211.5C 253.881,212.552 253.381,213.719 253.5,215C 251.099,215.795 248.932,216.962 247,218.5C 246.667,217.833 246.333,217.167 246,216.5C 243.945,218.555 242.279,220.888 241,223.5C 240.667,222.5 240.333,221.5 240,220.5C 238.16,221.833 237.66,221.666 238.5,220C 234.705,219.163 231.039,219.496 227.5,221C 229.394,222.101 230.061,223.434 229.5,225C 228.5,225.333 227.5,225.667 226.5,226C 229.595,227.635 230.429,229.802 229,232.5C 227.334,229.621 224.834,228.788 221.5,230C 221.404,231.373 221.57,232.873 222,234.5C 219.884,235.69 217.884,237.023 216,238.5C 215.586,238.043 215.086,237.709 214.5,237.5C 212.176,237.877 211.509,238.877 212.5,240.5C 211.469,241.7 210.635,243.034 210,244.5C 208.846,242.043 207.512,242.043 206,244.5C 203.277,241.201 200.444,238.868 197.5,237.5C 194.833,235.5 192.5,233.167 190.5,230.5C 190.351,229.448 190.517,228.448 191,227.5C 191.333,227.833 191.667,228.167 192,228.5C 193.507,227.495 194.673,226.162 195.5,224.5C 196.425,225.641 197.259,225.641 198,224.5C 198.862,222.913 199.529,221.246 200,219.5C 202.139,220.625 203.306,221.958 203.5,223.5C 204.287,222.758 204.953,221.925 205.5,221C 204.949,219.602 204.616,218.268 204.5,217C 205.854,215.706 207.188,215.54 208.5,216.5C 209.541,214.009 210.374,214.009 211,216.5C 211.483,215.552 211.649,214.552 211.5,213.5C 213.584,212.752 215.584,212.752 217.5,213.5C 218.333,212.5 219.167,211.5 220,210.5C 221.667,212.167 223.333,213.833 225,215.5C 225.399,215.272 225.565,214.938 225.5,214.5C 230.065,218.762 235.065,219.429 240.5,216.5C 240.897,217.525 241.563,217.692 242.5,217C 285.368,173.965 328.368,131.132 371.5,88.5C 372.322,90.7279 373.655,91.3946 375.5,90.5C 373.539,89.1521 373.372,87.8187 375,86.5C 376.388,87.5536 377.888,87.7203 379.5,87C 380.551,85.6152 381.884,84.6152 383.5,84C 382.241,83.0766 380.908,82.2432 379.5,81.5C 379.667,81.1667 379.833,80.8333 380,80.5C 381.388,81.5536 382.888,81.7203 384.5,81C 384.381,79.7188 384.881,78.5521 386,77.5C 387.425,76.9208 389.092,76.9208 391,77.5C 392.914,76.324 392.748,75.324 390.5,74.5C 391.247,74.2635 392.08,73.9302 393,73.5C 393.333,72.1667 393.667,70.8333 394,69.5C 394.471,71.2464 395.138,72.913 396,74.5C 397.487,73.7471 397.654,72.9138 396.5,72C 400.5,71.3333 400.5,70.6667 396.5,70C 400.025,68.2254 403.358,66.2254 406.5,64C 405.044,63.5774 404.544,62.7441 405,61.5C 406.113,62.7111 407.28,62.7111 408.5,61.5C 409.711,60.7261 409.711,59.8928 408.5,59C 410.329,58.7265 411.829,57.8932 413,56.5C 415.275,60.4832 416.275,60.4832 416,56.5C 416.333,56.8333 416.667,57.1667 417,57.5C 418.728,55.8056 418.228,54.6389 415.5,54C 417.473,53.5045 419.473,53.3379 421.5,53.5C 421.351,52.448 421.517,51.448 422,50.5C 422.39,54.1658 423.557,54.3324 425.5,51C 424.549,50.2825 424.383,49.4491 425,48.5C 426.243,49.3363 427.41,49.003 428.5,47.5C 427.371,45.4706 427.871,45.1373 430,46.5C 430.71,45.0267 431.876,44.3601 433.5,44.5C 433.67,43.1779 433.337,42.0113 432.5,41C 433.772,39.6932 434.772,38.1932 435.5,36.5C 436.086,36.7093 436.586,37.0426 437,37.5C 438.14,34.9824 439.306,34.9824 440.5,37.5 Z"/></g>
<g><path style="opacity:1" fill="#1b9e85" d="M 392.5,148.5 C 393.497,169.66 393.831,190.993 393.5,212.5C 393.167,212.5 392.833,212.5 392.5,212.5C 392.666,204.16 392.5,195.827 392,187.5C 391.682,189.061 390.849,190.228 389.5,191C 389.833,191.333 390.167,191.667 390.5,192C 389.256,192.456 388.423,191.956 388,190.5C 387,192.833 386,195.167 385,197.5C 382.766,196.295 381.099,196.961 380,199.5C 378.181,197.464 376.347,197.297 374.5,199C 375.167,199.333 375.833,199.667 376.5,200C 371.279,201.889 367.279,205.222 364.5,210C 360.5,210.667 360.5,211.333 364.5,212C 362.752,212.08 361.085,212.913 359.5,214.5C 358.833,221.989 358.167,229.322 357.5,236.5C 357.5,219.167 357.5,201.833 357.5,184.5C 369.167,172.5 380.833,160.5 392.5,148.5 Z"/></g>
<g><path style="opacity:1" fill="#22b875" d="M 370.5,82.5 C 371.461,84.2646 371.795,86.2646 371.5,88.5C 328.368,131.132 285.368,173.965 242.5,217C 241.563,217.692 240.897,217.525 240.5,216.5C 283.799,173.701 326.965,130.701 370,87.5C 370.494,85.8659 370.66,84.1992 370.5,82.5 Z"/></g>
<g><path style="opacity:1" fill="#5acf8b" d="M 225.5,214.5 C 225.565,214.938 225.399,215.272 225,215.5C 223.333,213.833 221.667,212.167 220,210.5C 219.167,211.5 218.333,212.5 217.5,213.5C 215.584,212.752 213.584,212.752 211.5,213.5C 211.649,214.552 211.483,215.552 211,216.5C 210.374,214.009 209.541,214.009 208.5,216.5C 207.188,215.54 205.854,215.706 204.5,217C 204.616,218.268 204.949,219.602 205.5,221C 204.953,221.925 204.287,222.758 203.5,223.5C 203.306,221.958 202.139,220.625 200,219.5C 199.529,221.246 198.862,222.913 198,224.5C 197.259,225.641 196.425,225.641 195.5,224.5C 194.673,226.162 193.507,227.495 192,228.5C 191.667,228.167 191.333,227.833 191,227.5C 190.517,228.448 190.351,229.448 190.5,230.5C 177.534,217.366 164.7,204.032 152,190.5C 148.308,179.239 151.808,171.072 162.5,166C 168.394,164.963 174.061,165.629 179.5,168C 195.035,183.368 210.368,198.868 225.5,214.5 Z"/></g>
<g><path style="opacity:1" fill="#31b88b" d="M 435.5,66.5 C 433.931,77.9132 431.931,89.2466 429.5,100.5C 428.189,98.4402 428.189,96.2735 429.5,94C 428.874,93.2496 428.374,92.4162 428,91.5C 427.346,94.0076 426.179,96.1742 424.5,98C 424.833,98.3333 425.167,98.6667 425.5,99C 423.423,99.8069 421.589,100.974 420,102.5C 419.667,102.167 419.333,101.833 419,101.5C 417.859,103.609 416.359,105.442 414.5,107C 412.888,107.72 411.388,107.554 410,106.5C 410.333,107.833 410.667,109.167 411,110.5C 408.532,108.35 406.699,108.516 405.5,111C 409.5,111.667 409.5,112.333 405.5,113C 407.857,114.22 407.524,115.053 404.5,115.5C 401.993,112.964 398.993,112.131 395.5,113C 344.415,165.087 292.415,216.087 239.5,266C 235.311,266.812 231.311,266.645 227.5,265.5C 227.938,265.565 228.272,265.399 228.5,265C 225.734,263.629 223.401,261.796 221.5,259.5C 223.697,258.989 226.031,257.822 228.5,256C 225.401,254.949 224.734,253.449 226.5,251.5C 227.251,252.376 227.751,253.376 228,254.5C 228.855,251.885 230.188,249.552 232,247.5C 234.19,248.584 235.856,247.917 237,245.5C 237.333,246.167 237.667,246.833 238,247.5C 238.513,245.479 239.68,243.979 241.5,243C 241.167,242.667 240.833,242.333 240.5,242C 241.833,241.667 243.167,241.333 244.5,241C 245.548,238.8 247.048,238.3 249,239.5C 250.751,237.51 251.751,235.177 252,232.5C 253.537,232.087 255.204,232.087 257,232.5C 258.168,231.491 259.335,230.491 260.5,229.5C 261.396,230.506 262.062,230.506 262.5,229.5C 261.624,228.749 260.624,228.249 259.5,228C 261.282,227.186 262.782,226.019 264,224.5C 265.299,224.966 266.799,224.966 268.5,224.5C 268.881,219.912 270.047,219.578 272,223.5C 272.249,222.376 272.749,221.376 273.5,220.5C 275.664,220.002 277.331,218.836 278.5,217C 277.833,216.667 277.167,216.333 276.5,216C 278.392,215.027 280.392,214.36 282.5,214C 282.167,213.667 281.833,213.333 281.5,213C 282.191,211.933 282.691,210.766 283,209.5C 283.333,209.833 283.667,210.167 284,210.5C 285.333,208.833 286.667,207.167 288,205.5C 289.994,208.084 290.494,207.918 289.5,205C 290.817,203.386 292.483,202.219 294.5,201.5C 294.291,200.914 293.957,200.414 293.5,200C 295.332,199.252 296.999,198.252 298.5,197C 298.167,196.667 297.833,196.333 297.5,196C 298.572,194.716 299.905,194.383 301.5,195C 300.672,194.085 299.672,193.419 298.5,193C 302.934,191.37 306.768,188.87 310,185.5C 310.333,185.833 310.667,186.167 311,186.5C 311,185.167 311,183.833 311,182.5C 311.333,182.833 311.667,183.167 312,183.5C 315.382,182.319 317.215,180.319 317.5,177.5C 318.425,176.359 319.259,176.359 320,177.5C 320.333,176.833 320.667,176.167 321,175.5C 321.718,176.451 322.551,176.617 323.5,176C 320.723,173.827 320.89,173.327 324,174.5C 323.016,172.402 323.349,170.402 325,168.5C 325.308,169.308 325.808,169.975 326.5,170.5C 327.795,169.902 329.128,169.402 330.5,169C 331.833,168.333 331.833,167.667 330.5,167C 331.167,166.667 331.833,166.333 332.5,166C 329.721,165.851 329.221,165.017 331,163.5C 333.586,163.188 336.086,163.688 338.5,165C 337.055,163.29 336.222,161.456 336,159.5C 336.667,160.833 337.333,160.833 338,159.5C 338.333,158.167 338.667,156.833 339,155.5C 339.333,155.833 339.667,156.167 340,156.5C 340.309,155.234 340.809,154.067 341.5,153C 343.167,153.333 344.833,153.667 346.5,154C 345.949,152.602 345.616,151.268 345.5,150C 347.723,149.348 348.89,147.848 349,145.5C 350.297,146.784 351.464,146.617 352.5,145C 351.483,143.951 351.316,142.784 352,141.5C 352.333,141.833 352.667,142.167 353,142.5C 354.646,140.403 356.646,138.736 359,137.5C 359.333,137.833 359.667,138.167 360,138.5C 360.318,136.939 361.151,135.772 362.5,135C 362.034,133.701 362.034,132.201 362.5,130.5C 364.527,130.662 366.527,130.495 368.5,130C 369.711,128.887 369.711,127.72 368.5,126.5C 369.522,125.646 370.355,124.646 371,123.5C 371.333,124.5 371.667,125.5 372,126.5C 372.29,124.956 372.956,123.623 374,122.5C 374.333,123.167 374.667,123.833 375,124.5C 376.015,121.898 377.848,120.065 380.5,119C 379.5,118.667 378.5,118.333 377.5,118C 377.983,114.538 379.15,114.038 381,116.5C 383.235,113.709 385.235,110.709 387,107.5C 388.525,107.112 390.192,107.112 392,107.5C 392.465,106.069 393.299,104.903 394.5,104C 393.833,103.667 393.167,103.333 392.5,103C 395.52,101.3 398.52,99.6337 401.5,98C 400.137,95.8707 400.471,95.3707 402.5,96.5C 403.7,95.4688 405.034,94.6355 406.5,94C 407.634,92.984 407.301,92.3173 405.5,92C 406.667,91.5 407.5,90.6667 408,89.5C 408.718,90.4506 409.551,90.6172 410.5,90C 411.634,88.984 411.301,88.3173 409.5,88C 412.544,87.6411 412.878,86.9745 410.5,86C 412.384,85.7837 414.051,85.117 415.5,84C 414.5,83.6667 413.5,83.3333 412.5,83C 414.608,82.6401 416.608,81.9734 418.5,81C 417.304,80.3457 417.304,79.8457 418.5,79.5C 419.251,80.376 419.751,81.376 420,82.5C 421.655,79.847 423.655,77.5136 426,75.5C 427.333,72.918 428.5,70.2513 429.5,67.5C 430.478,67.9767 431.311,68.6433 432,69.5C 432.075,66.5527 433.242,65.5527 435.5,66.5 Z"/></g>
<g><path style="opacity:1" fill="#169988" d="M 392.5,212.5 C 391.804,216.231 391.138,220.065 390.5,224C 390.957,224.414 391.291,224.914 391.5,225.5C 389.324,229.407 386.991,232.574 384.5,235C 384.957,235.414 385.291,235.914 385.5,236.5C 383.485,239.295 380.985,239.961 378,238.5C 377,239.833 376,241.167 375,242.5C 374.667,242.167 374.333,241.833 374,241.5C 373.621,243.57 374.455,245.07 376.5,246C 375.069,246.465 373.903,247.299 373,248.5C 371.308,246.178 369.474,245.678 367.5,247C 367.833,247.333 368.167,247.667 368.5,248C 364.845,248.928 364.179,250.595 366.5,253C 365.023,255.571 363.023,256.071 360.5,254.5C 359.808,255.025 359.308,255.692 359,256.5C 358.844,267.245 358.344,277.245 357.5,286.5C 357.5,276.833 357.5,267.167 357.5,257.5C 357.5,250.5 357.5,243.5 357.5,236.5C 358.167,229.322 358.833,221.989 359.5,214.5C 361.085,212.913 362.752,212.08 364.5,212C 360.5,211.333 360.5,210.667 364.5,210C 367.279,205.222 371.279,201.889 376.5,200C 375.833,199.667 375.167,199.333 374.5,199C 376.347,197.297 378.181,197.464 380,199.5C 381.099,196.961 382.766,196.295 385,197.5C 386,195.167 387,192.833 388,190.5C 388.423,191.956 389.256,192.456 390.5,192C 390.167,191.667 389.833,191.333 389.5,191C 390.849,190.228 391.682,189.061 392,187.5C 392.5,195.827 392.666,204.16 392.5,212.5 Z"/></g>
<g><path style="opacity:1" fill="#065646" d="M 357.5,184.5 C 357.5,201.833 357.5,219.167 357.5,236.5C 357.5,243.5 357.5,250.5 357.5,257.5C 356.717,255.657 356.05,253.657 355.5,251.5C 355.833,250.833 356.167,250.167 356.5,249.5C 355.864,241.86 355.197,234.193 354.5,226.5C 353.757,225.092 352.923,223.759 352,222.5C 351.667,223.167 351.333,223.833 351,224.5C 350.5,223.333 349.667,222.5 348.5,222C 348.833,221.667 349.167,221.333 349.5,221C 348.809,219.933 348.309,218.766 348,217.5C 346.846,218.743 345.512,219.743 344,220.5C 342.965,218.109 342.798,215.776 343.5,213.5C 342.294,211.851 340.961,210.351 339.5,209C 342.228,208.361 342.728,207.194 341,205.5C 339.984,206.634 339.317,206.301 339,204.5C 331.245,212.76 323.078,220.426 314.5,227.5C 328.5,212.833 342.833,198.5 357.5,184.5 Z"/></g>
<g><path style="opacity:1" fill="#096551" d="M 357.5,257.5 C 357.5,267.167 357.5,276.833 357.5,286.5C 356.539,288.265 356.205,290.265 356.5,292.5C 355.596,293.209 355.263,294.209 355.5,295.5C 355.248,291.023 355.081,286.357 355,281.5C 353.155,279.812 351.321,278.979 349.5,279C 350.289,278.454 351.289,277.787 352.5,277C 351.5,276.5 350.5,276 349.5,275.5C 348.169,276.592 347.336,277.926 347,279.5C 345.023,274.855 341.856,271.688 337.5,270C 338.167,269.667 338.833,269.333 339.5,269C 338.151,268.228 337.318,267.061 337,265.5C 335.988,267.864 334.655,269.198 333,269.5C 332.333,268.167 332.333,266.833 333,265.5C 333.893,266.711 334.726,266.711 335.5,265.5C 332.836,264.502 330.503,263.002 328.5,261C 330.993,259.417 330.826,257.917 328,256.5C 327.085,257.328 326.419,258.328 326,259.5C 324.54,257.028 323.54,254.361 323,251.5C 319.89,252.673 319.723,252.173 322.5,250C 320.816,248.26 318.982,247.094 317,246.5C 314.734,243.646 315.234,241.813 318.5,241C 316.51,239.249 314.177,238.249 311.5,238C 315.097,237.136 314.93,235.969 311,234.5C 305.064,238.267 299.898,242.933 295.5,248.5C 292.121,251.551 288.788,254.551 285.5,257.5C 294.467,246.866 304.134,236.866 314.5,227.5C 323.078,220.426 331.245,212.76 339,204.5C 339.317,206.301 339.984,206.634 341,205.5C 342.728,207.194 342.228,208.361 339.5,209C 340.961,210.351 342.294,211.851 343.5,213.5C 342.798,215.776 342.965,218.109 344,220.5C 345.512,219.743 346.846,218.743 348,217.5C 348.309,218.766 348.809,219.933 349.5,221C 349.167,221.333 348.833,221.667 348.5,222C 349.667,222.5 350.5,223.333 351,224.5C 351.333,223.833 351.667,223.167 352,222.5C 352.923,223.759 353.757,225.092 354.5,226.5C 355.197,234.193 355.864,241.86 356.5,249.5C 356.167,250.167 355.833,250.833 355.5,251.5C 356.05,253.657 356.717,255.657 357.5,257.5 Z"/></g>
<g><path style="opacity:1" fill="#119388" d="M 392.5,212.5 C 392.5,232.167 392.5,251.833 392.5,271.5C 391.834,267.647 391.167,263.647 390.5,259.5C 387.972,258.502 387.972,257.669 390.5,257C 389.929,255.795 389.262,254.628 388.5,253.5C 387.494,253.938 387.494,254.604 388.5,255.5C 386.665,256.428 386.332,257.594 387.5,259C 386.624,260.586 385.624,262.086 384.5,263.5C 383.304,263.154 383.304,262.654 384.5,262C 383.234,261.691 382.067,261.191 381,260.5C 380.817,262.844 379.817,265.177 378,267.5C 376.853,266.542 375.853,266.875 375,268.5C 373.798,270.553 373.464,272.553 374,274.5C 372.927,273.72 371.76,273.887 370.5,275C 373.544,275.359 373.878,276.026 371.5,277C 373.891,278.309 373.891,279.309 371.5,280C 375.5,281.333 375.5,282.667 371.5,284C 372.167,284.333 372.833,284.667 373.5,285C 372.151,285.772 371.318,286.939 371,288.5C 370.333,284.5 369.667,284.5 369,288.5C 368.667,286.5 368.333,284.5 368,282.5C 367.097,283.701 365.931,284.535 364.5,285C 366.271,285.535 366.604,286.369 365.5,287.5C 361.781,286.374 361.114,287.207 363.5,290C 362.5,290.333 361.5,290.667 360.5,291C 362.384,291.216 364.051,291.883 365.5,293C 363.77,294.852 362.604,294.686 362,292.5C 360.667,292.5 359.333,292.5 358,292.5C 357.221,295.097 356.721,295.097 356.5,292.5C 356.205,290.265 356.539,288.265 357.5,286.5C 358.344,277.245 358.844,267.245 359,256.5C 359.308,255.692 359.808,255.025 360.5,254.5C 363.023,256.071 365.023,255.571 366.5,253C 364.179,250.595 364.845,248.928 368.5,248C 368.167,247.667 367.833,247.333 367.5,247C 369.474,245.678 371.308,246.178 373,248.5C 373.903,247.299 375.069,246.465 376.5,246C 374.455,245.07 373.621,243.57 374,241.5C 374.333,241.833 374.667,242.167 375,242.5C 376,241.167 377,239.833 378,238.5C 380.985,239.961 383.485,239.295 385.5,236.5C 385.291,235.914 384.957,235.414 384.5,235C 386.991,232.574 389.324,229.407 391.5,225.5C 391.291,224.914 390.957,224.414 390.5,224C 391.138,220.065 391.804,216.231 392.5,212.5 Z"/></g>
<g><path style="opacity:1" fill="#0a6d58" d="M 355.5,295.5 C 353.76,303.324 349.76,309.658 343.5,314.5C 342.243,312.632 342.576,310.965 344.5,309.5C 342.776,308.967 341.109,307.801 339.5,306C 339.957,305.586 340.291,305.086 340.5,304.5C 339.081,302.664 337.914,300.664 337,298.5C 334.965,300.912 333.965,300.245 334,296.5C 331.933,299.014 330.433,298.848 329.5,296C 324.563,296.755 324.229,295.422 328.5,292C 325.659,293.012 324.326,291.845 324.5,288.5C 323.5,288.5 322.5,288.5 321.5,288.5C 322.763,284.357 321.263,281.357 317,279.5C 316.383,278.551 316.549,277.718 317.5,277C 316.975,276.308 316.308,275.808 315.5,275.5C 314.549,276.326 313.549,276.492 312.5,276C 312.79,274.361 313.624,272.861 315,271.5C 313.951,272.517 312.784,272.684 311.5,272C 312.167,271.667 312.833,271.333 313.5,271C 311.275,270.439 309.275,269.439 307.5,268C 308.938,267.781 310.271,267.281 311.5,266.5C 310.273,265.41 309.44,264.076 309,262.5C 308.085,263.328 307.419,264.328 307,265.5C 306.316,264.216 306.483,263.049 307.5,262C 306.167,261.333 305.167,260.333 304.5,259C 306.207,258.805 307.874,258.805 309.5,259C 308.109,257.35 306.609,256.85 305,257.5C 303.64,255.895 302.14,254.395 300.5,253C 302.701,252.223 302.701,251.056 300.5,249.5C 299.252,250.04 298.085,250.707 297,251.5C 295.844,250.498 295.344,249.498 295.5,248.5C 299.898,242.933 305.064,238.267 311,234.5C 314.93,235.969 315.097,237.136 311.5,238C 314.177,238.249 316.51,239.249 318.5,241C 315.234,241.813 314.734,243.646 317,246.5C 318.982,247.094 320.816,248.26 322.5,250C 319.723,252.173 319.89,252.673 323,251.5C 323.54,254.361 324.54,257.028 326,259.5C 326.419,258.328 327.085,257.328 328,256.5C 330.826,257.917 330.993,259.417 328.5,261C 330.503,263.002 332.836,264.502 335.5,265.5C 334.726,266.711 333.893,266.711 333,265.5C 332.333,266.833 332.333,268.167 333,269.5C 334.655,269.198 335.988,267.864 337,265.5C 337.318,267.061 338.151,268.228 339.5,269C 338.833,269.333 338.167,269.667 337.5,270C 341.856,271.688 345.023,274.855 347,279.5C 347.336,277.926 348.169,276.592 349.5,275.5C 350.5,276 351.5,276.5 352.5,277C 351.289,277.787 350.289,278.454 349.5,279C 351.321,278.979 353.155,279.812 355,281.5C 355.081,286.357 355.248,291.023 355.5,295.5 Z"/></g>
<g><path style="opacity:1" fill="#4baca2" d="M 392.5,148.5 C 392.56,147.957 392.893,147.624 393.5,147.5C 394.831,193.998 394.831,240.332 393.5,286.5C 393.5,261.833 393.5,237.167 393.5,212.5C 393.831,190.993 393.497,169.66 392.5,148.5 Z"/></g>
<g><path style="opacity:1" fill="#44c18b" d="M 192.5,262.5 C 190.606,261.952 188.94,260.952 187.5,259.5C 185.167,261.667 182.833,263.833 180.5,266C 181.535,267.507 181.368,269.007 180,270.5C 179.667,269.833 179.333,269.167 179,268.5C 177.155,270.35 175.155,270.683 173,269.5C 172.833,269.833 172.667,270.167 172.5,270.5C 176.34,271.86 176.34,273.36 172.5,275C 173.696,275.654 173.696,276.154 172.5,276.5C 171.749,275.624 171.249,274.624 171,273.5C 170.027,275.392 169.36,277.392 169,279.5C 168.043,277.291 166.876,277.457 165.5,280C 164.167,280.333 162.833,280.667 161.5,281C 162.308,281.308 162.975,281.808 163.5,282.5C 162.194,283.912 161.36,285.579 161,287.5C 160.667,286.5 160.333,285.5 160,284.5C 159.425,287.286 157.925,289.286 155.5,290.5C 154.211,268.85 154.211,247.183 155.5,225.5C 168.188,237.521 180.521,249.854 192.5,262.5 Z"/></g>
<g><path style="opacity:1" fill="#30b78b" d="M 192.5,262.5 C 194.833,264.167 196.833,266.167 198.5,268.5C 197.603,269.598 196.77,269.598 196,268.5C 195.443,270.615 194.609,272.615 193.5,274.5C 193.709,275.086 194.043,275.586 194.5,276C 193.333,277.833 191.833,279.333 190,280.5C 188.927,279.72 187.76,279.887 186.5,281C 187.167,281.667 187.833,282.333 188.5,283C 186.725,284.439 184.725,285.439 182.5,286C 183.833,287.84 183.666,288.34 182,287.5C 181.417,289.002 180.584,290.335 179.5,291.5C 176.205,290.306 174.705,291.639 175,295.5C 172.595,293.179 170.928,293.845 170,297.5C 169.086,296.346 168.253,296.513 167.5,298C 167.833,298.333 168.167,298.667 168.5,299C 167.333,299.5 166.5,300.333 166,301.5C 165.667,301.167 165.333,300.833 165,300.5C 164.56,302.076 163.727,303.41 162.5,304.5C 163.127,305.417 163.461,306.417 163.5,307.5C 159.317,302.654 156.651,296.987 155.5,290.5C 157.925,289.286 159.425,287.286 160,284.5C 160.333,285.5 160.667,286.5 161,287.5C 161.36,285.579 162.194,283.912 163.5,282.5C 162.975,281.808 162.308,281.308 161.5,281C 162.833,280.667 164.167,280.333 165.5,280C 166.876,277.457 168.043,277.291 169,279.5C 169.36,277.392 170.027,275.392 171,273.5C 171.249,274.624 171.749,275.624 172.5,276.5C 173.696,276.154 173.696,275.654 172.5,275C 176.34,273.36 176.34,271.86 172.5,270.5C 172.667,270.167 172.833,269.833 173,269.5C 175.155,270.683 177.155,270.35 179,268.5C 179.333,269.167 179.667,269.833 180,270.5C 181.368,269.007 181.535,267.507 180.5,266C 182.833,263.833 185.167,261.667 187.5,259.5C 188.94,260.952 190.606,261.952 192.5,262.5 Z"/></g>
<g><path style="opacity:1" fill="#138167" d="M 251.5,325.5 C 240.5,325.5 229.5,325.5 218.5,325.5C 224.167,324.833 229.833,324.167 235.5,323.5C 243.174,323.666 250.841,323.5 258.5,323C 256.167,322.667 253.833,322.333 251.5,322C 254.474,320.494 254.807,318.828 252.5,317C 252.833,316 253.167,315 253.5,314C 251.699,313.683 251.366,313.016 252.5,312C 250.064,309.395 250.731,307.395 254.5,306C 253.257,304.846 252.257,303.512 251.5,302C 251.767,299.37 251.934,296.537 252,293.5C 251.586,293.043 251.086,292.709 250.5,292.5C 247.24,294.727 243.906,295.394 240.5,294.5C 244.035,293.948 247.368,292.782 250.5,291C 256.67,285.662 262.67,280.162 268.5,274.5C 269.583,274.461 270.583,274.127 271.5,273.5C 272.724,274.766 274.057,275.933 275.5,277C 274.366,278.016 274.699,278.683 276.5,279C 275.273,280.587 275.606,281.921 277.5,283C 276.376,283.249 275.376,283.749 274.5,284.5C 276.503,286.133 277.836,288.133 278.5,290.5C 282.135,290.656 282.468,291.822 279.5,294C 280.585,296.172 281.919,298.172 283.5,300C 282.833,300.667 282.167,301.333 281.5,302C 282.978,303.193 284.312,303.693 285.5,303.5C 284.96,304.748 284.293,305.915 283.5,307C 287.281,307.367 287.948,308.7 285.5,311C 286.253,312.487 287.086,312.654 288,311.5C 288.318,313.061 289.151,314.228 290.5,315C 287.833,315.667 287.833,316.333 290.5,317C 286.81,317.424 286.643,318.258 290,319.5C 290.483,320.448 290.649,321.448 290.5,322.5C 292.857,322.337 295.19,322.503 297.5,323C 281.973,323.159 266.64,323.992 251.5,325.5 Z"/></g>
<g><path style="opacity:1" fill="#29b089" d="M 198.5,268.5 C 201.5,271.833 204.5,275.167 207.5,278.5C 208.415,280.754 209.748,282.754 211.5,284.5C 210.553,289.623 207.553,293.123 202.5,295C 203.552,296.716 202.886,297.716 200.5,298C 200.833,298.333 201.167,298.667 201.5,299C 199.484,299.197 197.484,300.197 195.5,302C 199.334,304.266 199.001,304.933 194.5,304C 195.946,306.493 195.279,308.327 192.5,309.5C 195.028,310.517 195.028,311.684 192.5,313C 192.833,313.333 193.167,313.667 193.5,314C 190.456,314.359 190.122,315.026 192.5,316C 193.061,317.566 192.394,318.899 190.5,320C 190.957,320.414 191.291,320.914 191.5,321.5C 190.041,321.692 188.375,322.358 186.5,323.5C 176.604,321.255 168.937,315.922 163.5,307.5C 163.461,306.417 163.127,305.417 162.5,304.5C 163.727,303.41 164.56,302.076 165,300.5C 165.333,300.833 165.667,301.167 166,301.5C 166.5,300.333 167.333,299.5 168.5,299C 168.167,298.667 167.833,298.333 167.5,298C 168.253,296.513 169.086,296.346 170,297.5C 170.928,293.845 172.595,293.179 175,295.5C 174.705,291.639 176.205,290.306 179.5,291.5C 180.584,290.335 181.417,289.002 182,287.5C 183.666,288.34 183.833,287.84 182.5,286C 184.725,285.439 186.725,284.439 188.5,283C 187.833,282.333 187.167,281.667 186.5,281C 187.76,279.887 188.927,279.72 190,280.5C 191.833,279.333 193.333,277.833 194.5,276C 194.043,275.586 193.709,275.086 193.5,274.5C 194.609,272.615 195.443,270.615 196,268.5C 196.77,269.598 197.603,269.598 198.5,268.5 Z"/></g>
<g><path style="opacity:1" fill="#0c8886" d="M 392.5,212.5 C 392.833,212.5 393.167,212.5 393.5,212.5C 393.5,237.167 393.5,261.833 393.5,286.5C 390.816,307.357 379.149,320.19 358.5,325C 347.839,325.5 337.172,325.667 326.5,325.5C 327.209,324.596 328.209,324.263 329.5,324.5C 338.503,324.125 347.503,323.625 356.5,323C 355.833,322.333 355.167,321.667 354.5,321C 354.727,319.865 355.06,318.698 355.5,317.5C 357.059,316.926 358.559,316.26 360,315.5C 361.94,316.694 363.773,316.694 365.5,315.5C 364.478,314.646 363.645,313.646 363,312.5C 362.667,313.167 362.333,313.833 362,314.5C 361.333,313.167 360.667,313.167 360,314.5C 359.228,313.151 358.061,312.318 356.5,312C 357.931,311.535 359.097,310.701 360,309.5C 360.333,309.833 360.667,310.167 361,310.5C 362.164,308.351 363.33,306.185 364.5,304C 366.055,302.354 367.721,302.021 369.5,303C 371.281,300.763 373.281,298.763 375.5,297C 374.376,296.751 373.376,296.251 372.5,295.5C 372.667,295.167 372.833,294.833 373,294.5C 374.61,294.13 376.11,294.797 377.5,296.5C 377.694,294.93 377.694,293.43 377.5,292C 379.876,292.423 382.043,291.589 384,289.5C 384.333,289.833 384.667,290.167 385,290.5C 385.483,289.552 385.649,288.552 385.5,287.5C 386.675,287.719 387.675,287.386 388.5,286.5C 389.103,285.365 389.436,284.365 389.5,283.5C 390.333,284.5 391.167,285.5 392,286.5C 392.499,281.511 392.666,276.511 392.5,271.5C 392.5,251.833 392.5,232.167 392.5,212.5 Z"/></g>
<g><path style="opacity:1" fill="#0c745d" d="M 295.5,248.5 C 295.344,249.498 295.844,250.498 297,251.5C 298.085,250.707 299.252,250.04 300.5,249.5C 302.701,251.056 302.701,252.223 300.5,253C 302.14,254.395 303.64,255.895 305,257.5C 306.609,256.85 308.109,257.35 309.5,259C 307.874,258.805 306.207,258.805 304.5,259C 305.167,260.333 306.167,261.333 307.5,262C 306.483,263.049 306.316,264.216 307,265.5C 307.419,264.328 308.085,263.328 309,262.5C 309.44,264.076 310.273,265.41 311.5,266.5C 310.271,267.281 308.938,267.781 307.5,268C 309.275,269.439 311.275,270.439 313.5,271C 312.833,271.333 312.167,271.667 311.5,272C 312.784,272.684 313.951,272.517 315,271.5C 313.624,272.861 312.79,274.361 312.5,276C 313.549,276.492 314.549,276.326 315.5,275.5C 316.308,275.808 316.975,276.308 317.5,277C 316.549,277.718 316.383,278.551 317,279.5C 321.263,281.357 322.763,284.357 321.5,288.5C 322.5,288.5 323.5,288.5 324.5,288.5C 324.326,291.845 325.659,293.012 328.5,292C 324.229,295.422 324.563,296.755 329.5,296C 330.433,298.848 331.933,299.014 334,296.5C 333.965,300.245 334.965,300.912 337,298.5C 337.914,300.664 339.081,302.664 340.5,304.5C 340.291,305.086 339.957,305.586 339.5,306C 341.109,307.801 342.776,308.967 344.5,309.5C 342.576,310.965 342.243,312.632 343.5,314.5C 339.647,319.027 334.98,322.36 329.5,324.5C 328.209,324.263 327.209,324.596 326.5,325.5C 301.5,325.5 276.5,325.5 251.5,325.5C 266.64,323.992 281.973,323.159 297.5,323C 295.19,322.503 292.857,322.337 290.5,322.5C 290.649,321.448 290.483,320.448 290,319.5C 286.643,318.258 286.81,317.424 290.5,317C 287.833,316.333 287.833,315.667 290.5,315C 289.151,314.228 288.318,313.061 288,311.5C 287.086,312.654 286.253,312.487 285.5,311C 287.948,308.7 287.281,307.367 283.5,307C 284.293,305.915 284.96,304.748 285.5,303.5C 284.312,303.693 282.978,303.193 281.5,302C 282.167,301.333 282.833,300.667 283.5,300C 281.919,298.172 280.585,296.172 279.5,294C 282.468,291.822 282.135,290.656 278.5,290.5C 277.836,288.133 276.503,286.133 274.5,284.5C 275.376,283.749 276.376,283.249 277.5,283C 275.606,281.921 275.273,280.587 276.5,279C 274.699,278.683 274.366,278.016 275.5,277C 274.057,275.933 272.724,274.766 271.5,273.5C 270.583,274.127 269.583,274.461 268.5,274.5C 273.86,268.473 279.527,262.806 285.5,257.5C 288.788,254.551 292.121,251.551 295.5,248.5 Z"/></g>
<g><path style="opacity:1" fill="#1a8d72" d="M 235.5,323.5 C 235.082,322.778 234.416,322.278 233.5,322C 235.301,321.683 235.634,321.016 234.5,320C 236.283,318.933 236.783,317.433 236,315.5C 235.08,315.07 234.247,314.736 233.5,314.5C 234.167,313.833 234.833,313.167 235.5,312.5C 235.5,309.5 235.5,306.5 235.5,303.5C 236.5,302.833 237.5,302.167 238.5,301.5C 237.265,299.585 235.932,298.585 234.5,298.5C 236.167,297.833 237.833,297.167 239.5,296.5C 237.031,295.832 234.698,295.165 232.5,294.5C 235.167,294.5 237.833,294.5 240.5,294.5C 243.906,295.394 247.24,294.727 250.5,292.5C 251.086,292.709 251.586,293.043 252,293.5C 251.934,296.537 251.767,299.37 251.5,302C 252.257,303.512 253.257,304.846 254.5,306C 250.731,307.395 250.064,309.395 252.5,312C 251.366,313.016 251.699,313.683 253.5,314C 253.167,315 252.833,316 252.5,317C 254.807,318.828 254.474,320.494 251.5,322C 253.833,322.333 256.167,322.667 258.5,323C 250.841,323.5 243.174,323.666 235.5,323.5 Z"/></g>
<g><path style="opacity:1" fill="#0d8f89" d="M 392.5,271.5 C 392.666,276.511 392.499,281.511 392,286.5C 391.167,285.5 390.333,284.5 389.5,283.5C 389.436,284.365 389.103,285.365 388.5,286.5C 387.675,287.386 386.675,287.719 385.5,287.5C 385.649,288.552 385.483,289.552 385,290.5C 384.667,290.167 384.333,289.833 384,289.5C 382.043,291.589 379.876,292.423 377.5,292C 377.694,293.43 377.694,294.93 377.5,296.5C 376.11,294.797 374.61,294.13 373,294.5C 372.833,294.833 372.667,295.167 372.5,295.5C 373.376,296.251 374.376,296.751 375.5,297C 373.281,298.763 371.281,300.763 369.5,303C 367.721,302.021 366.055,302.354 364.5,304C 363.33,306.185 362.164,308.351 361,310.5C 360.667,310.167 360.333,309.833 360,309.5C 359.097,310.701 357.931,311.535 356.5,312C 358.061,312.318 359.228,313.151 360,314.5C 360.667,313.167 361.333,313.167 362,314.5C 362.333,313.833 362.667,313.167 363,312.5C 363.645,313.646 364.478,314.646 365.5,315.5C 363.773,316.694 361.94,316.694 360,315.5C 358.559,316.26 357.059,316.926 355.5,317.5C 355.06,318.698 354.727,319.865 354.5,321C 355.167,321.667 355.833,322.333 356.5,323C 347.503,323.625 338.503,324.125 329.5,324.5C 334.98,322.36 339.647,319.027 343.5,314.5C 349.76,309.658 353.76,303.324 355.5,295.5C 355.263,294.209 355.596,293.209 356.5,292.5C 356.721,295.097 357.221,295.097 358,292.5C 359.333,292.5 360.667,292.5 362,292.5C 362.604,294.686 363.77,294.852 365.5,293C 364.051,291.883 362.384,291.216 360.5,291C 361.5,290.667 362.5,290.333 363.5,290C 361.114,287.207 361.781,286.374 365.5,287.5C 366.604,286.369 366.271,285.535 364.5,285C 365.931,284.535 367.097,283.701 368,282.5C 368.333,284.5 368.667,286.5 369,288.5C 369.667,284.5 370.333,284.5 371,288.5C 371.318,286.939 372.151,285.772 373.5,285C 372.833,284.667 372.167,284.333 371.5,284C 375.5,282.667 375.5,281.333 371.5,280C 373.891,279.309 373.891,278.309 371.5,277C 373.878,276.026 373.544,275.359 370.5,275C 371.76,273.887 372.927,273.72 374,274.5C 373.464,272.553 373.798,270.553 375,268.5C 375.853,266.875 376.853,266.542 378,267.5C 379.817,265.177 380.817,262.844 381,260.5C 382.067,261.191 383.234,261.691 384.5,262C 383.304,262.654 383.304,263.154 384.5,263.5C 385.624,262.086 386.624,260.586 387.5,259C 386.332,257.594 386.665,256.428 388.5,255.5C 387.494,254.604 387.494,253.938 388.5,253.5C 389.262,254.628 389.929,255.795 390.5,257C 387.972,257.669 387.972,258.502 390.5,259.5C 391.167,263.647 391.834,267.647 392.5,271.5 Z"/></g>
<g><path style="opacity:1" fill="#1f9779" d="M 207.5,278.5 C 211.998,282.83 216.665,286.997 221.5,291C 224.893,293.076 228.56,294.242 232.5,294.5C 234.698,295.165 237.031,295.832 239.5,296.5C 237.833,297.167 236.167,297.833 234.5,298.5C 235.932,298.585 237.265,299.585 238.5,301.5C 237.5,302.167 236.5,302.833 235.5,303.5C 235.5,306.5 235.5,309.5 235.5,312.5C 234.833,313.167 234.167,313.833 233.5,314.5C 234.247,314.736 235.08,315.07 236,315.5C 236.783,317.433 236.283,318.933 234.5,320C 235.634,321.016 235.301,321.683 233.5,322C 234.416,322.278 235.082,322.778 235.5,323.5C 229.833,324.167 224.167,324.833 218.5,325.5C 210.5,325.5 202.5,325.5 194.5,325.5C 199.786,324.662 205.119,323.495 210.5,322C 210.167,321.667 209.833,321.333 209.5,321C 210.833,320.667 212.167,320.333 213.5,320C 212.334,317.286 213.001,314.953 215.5,313C 215.265,312.127 214.931,311.293 214.5,310.5C 216.654,310.174 217.988,309.008 218.5,307C 218.167,306 217.833,305 217.5,304C 220.589,301.81 221.255,298.977 219.5,295.5C 219.818,294.353 220.484,293.519 221.5,293C 218,290.331 214.667,287.498 211.5,284.5C 209.748,282.754 208.415,280.754 207.5,278.5 Z"/></g>
<g><path style="opacity:1" fill="#24a382" d="M 211.5,284.5 C 214.667,287.498 218,290.331 221.5,293C 220.484,293.519 219.818,294.353 219.5,295.5C 221.255,298.977 220.589,301.81 217.5,304C 217.833,305 218.167,306 218.5,307C 217.988,309.008 216.654,310.174 214.5,310.5C 214.931,311.293 215.265,312.127 215.5,313C 213.001,314.953 212.334,317.286 213.5,320C 212.167,320.333 210.833,320.667 209.5,321C 209.833,321.333 210.167,321.667 210.5,322C 205.119,323.495 199.786,324.662 194.5,325.5C 191.505,325.706 188.838,325.04 186.5,323.5C 188.375,322.358 190.041,321.692 191.5,321.5C 191.291,320.914 190.957,320.414 190.5,320C 192.394,318.899 193.061,317.566 192.5,316C 190.122,315.026 190.456,314.359 193.5,314C 193.167,313.667 192.833,313.333 192.5,313C 195.028,311.684 195.028,310.517 192.5,309.5C 195.279,308.327 195.946,306.493 194.5,304C 199.001,304.933 199.334,304.266 195.5,302C 197.484,300.197 199.484,299.197 201.5,299C 201.167,298.667 200.833,298.333 200.5,298C 202.886,297.716 203.552,296.716 202.5,295C 207.553,293.123 210.553,289.623 211.5,284.5 Z"/></g>
<g><path style="opacity:1" fill="#001e11" d="M 143.5,366.5 C 123.194,367.504 100.194,367.838 74.5,367.5C 74.6658,372.179 74.4992,376.845 74,381.5C 73.5065,379.866 73.3398,378.199 73.5,376.5C 73.5,373.167 73.5,369.833 73.5,366.5C 96.8333,366.5 120.167,366.5 143.5,366.5 Z"/></g>
<g><path style="opacity:1" fill="#0b5649" d="M 195.5,386.5 C 183.511,388.343 178.344,383.343 180,371.5C 181.332,369.34 182.832,367.34 184.5,365.5C 192.173,361.568 198.006,363.568 202,371.5C 203.767,378.408 201.6,383.408 195.5,386.5 Z"/></g>
<g><path style="opacity:1" fill="#0a5346" d="M 399.5,363.5 C 413.857,363.349 418.69,370.016 414,383.5C 405.048,391.078 397.714,389.745 392,379.5C 391.333,376.833 391.333,374.167 392,371.5C 394.028,368.308 396.528,365.641 399.5,363.5 Z"/></g>
<g><path style="opacity:1" fill="#0d3f2f" d="M 184.5,365.5 C 182.832,367.34 181.332,369.34 180,371.5C 178.344,383.343 183.511,388.343 195.5,386.5C 187.063,390.038 181.23,387.371 178,378.5C 177.007,372.486 179.174,368.153 184.5,365.5 Z"/></g>
<g><path style="opacity:1" fill="#184e3f" d="M 374.5,402.5 C 373.833,402.5 373.167,402.5 372.5,402.5C 364.826,402.666 357.159,402.5 349.5,402C 348.85,395.222 348.183,388.389 347.5,381.5C 345.803,382.364 344.637,383.697 344,385.5C 343.667,384.833 343.333,384.167 343,383.5C 342.292,384.381 341.458,385.047 340.5,385.5C 341.919,382.9 343.585,380.4 345.5,378C 347.134,377.506 348.801,377.34 350.5,377.5C 350.5,385.167 350.5,392.833 350.5,400.5C 358.903,399.866 366.903,400.533 374.5,402.5 Z"/></g>
<g><path style="opacity:1" fill="#04382b" d="M 594.5,406.5 C 594.5,405.167 594.5,403.833 594.5,402.5C 583.828,402.333 573.161,402.5 562.5,403C 561.663,404.011 561.33,405.178 561.5,406.5C 563.401,406.246 564.067,406.58 563.5,407.5C 562.167,407.5 560.833,407.5 559.5,407.5C 559.833,405.5 560.167,403.5 560.5,401.5C 572.5,401.5 584.5,401.5 596.5,401.5C 596.923,403.781 596.256,405.448 594.5,406.5 Z"/></g>
<g><path style="opacity:1" fill="#013123" d="M 328.5,398.5 C 326.443,402.067 323.777,405.234 320.5,408C 323.695,408.181 326.695,408.681 329.5,409.5C 326.167,409.5 322.833,409.5 319.5,409.5C 321.334,404.988 324.334,401.321 328.5,398.5 Z"/></g>
<g><path style="opacity:1" fill="#0b574a" d="M 372.5,402.5 C 363.403,403.462 354.403,403.795 345.5,403.5C 347.059,405.131 349.059,405.964 351.5,406C 350.5,406.333 349.5,406.667 348.5,407C 352.333,407.167 356.167,407.333 360,407.5C 364.26,407.461 368.26,406.794 372,405.5C 372.483,406.448 372.649,407.448 372.5,408.5C 364.777,408.2 357.11,408.533 349.5,409.5C 348.434,427.514 348.267,445.514 349,463.5C 348.667,461.833 348.333,460.167 348,458.5C 347.333,459.833 346.667,459.833 346,458.5C 344.522,461.993 342.522,462.326 340,459.5C 339.136,462.669 337.803,462.335 336,458.5C 334.853,459.458 333.853,459.125 333,457.5C 332.667,460.5 332.333,463.5 332,466.5C 331.667,447.833 331.333,429.167 331,410.5C 330.5,428.83 330.333,447.164 330.5,465.5C 329.503,447.007 329.17,428.341 329.5,409.5C 326.695,408.681 323.695,408.181 320.5,408C 323.777,405.234 326.443,402.067 328.5,398.5C 332.277,393.935 336.277,389.602 340.5,385.5C 341.458,385.047 342.292,384.381 343,383.5C 343.333,384.167 343.667,384.833 344,385.5C 344.637,383.697 345.803,382.364 347.5,381.5C 348.183,388.389 348.85,395.222 349.5,402C 357.159,402.5 364.826,402.666 372.5,402.5 Z"/></g>
<g><path style="opacity:1" fill="#0a5245" d="M 563.5,407.5 C 564.067,406.58 563.401,406.246 561.5,406.5C 561.33,405.178 561.663,404.011 562.5,403C 573.161,402.5 583.828,402.333 594.5,402.5C 594.5,403.833 594.5,405.167 594.5,406.5C 591.226,407.88 587.893,409.38 584.5,411C 577.833,417 571.167,423 564.5,429C 574.29,442.741 583.456,456.908 592,471.5C 594.313,474.072 597.146,475.739 600.5,476.5C 600.5,477.833 600.5,479.167 600.5,480.5C 593.5,480.5 586.5,480.5 579.5,480.5C 574.768,479.29 570.934,476.623 568,472.5C 563.886,465.271 560.053,457.937 556.5,450.5C 555.327,446.14 553.161,442.474 550,439.5C 546.38,442.117 543.047,445.117 540,448.5C 539.184,455.919 539.351,462.585 540.5,468.5C 541.412,472.746 544.078,475.412 548.5,476.5C 549.452,478.045 549.785,479.712 549.5,481.5C 536.5,481.5 523.5,481.5 510.5,481.5C 510.215,479.712 510.548,478.045 511.5,476.5C 516.232,475.268 519.066,472.268 520,467.5C 520.667,438.167 520.667,408.833 520,379.5C 519.529,377.754 518.862,376.087 518,374.5C 515.523,373.015 513.356,371.181 511.5,369C 511.667,368.5 511.833,368 512,367.5C 521.114,364.407 530.28,361.407 539.5,358.5C 540.333,384.827 540.833,411.16 541,437.5C 551.011,428.322 560.844,418.988 570.5,409.5C 568.031,408.832 565.698,408.165 563.5,407.5 Z"/></g>
<g><path style="opacity:1" fill="#0a5447" d="M 313.5,479.5 C 300.816,479.832 288.149,479.499 275.5,478.5C 278.87,477.13 281.203,474.797 282.5,471.5C 282.433,470.041 282.766,468.708 283.5,467.5C 284.66,454.34 284.827,441.006 284,427.5C 283.768,426.263 283.268,425.263 282.5,424.5C 277.679,413.938 269.679,410.771 258.5,415C 255.061,417.139 251.894,419.639 249,422.5C 248.241,439.187 248.408,455.854 249.5,472.5C 249.511,474.017 250.177,475.184 251.5,476C 253.332,476.748 254.999,477.748 256.5,479C 244.153,479.833 231.82,479.666 219.5,478.5C 220.025,477.808 220.692,477.308 221.5,477C 221.272,476.601 220.938,476.435 220.5,476.5C 225.216,475.445 227.883,472.445 228.5,467.5C 229.661,451.672 229.828,435.672 229,419.5C 228.667,418.833 228.333,418.167 228,417.5C 227.601,417.728 227.435,418.062 227.5,418.5C 225.827,415.833 223.493,413.833 220.5,412.5C 219.571,411.311 219.238,409.978 219.5,408.5C 229.058,405.425 238.724,402.758 248.5,400.5C 248.334,405.179 248.501,409.845 249,414.5C 259.577,401.31 273.077,397.144 289.5,402C 297.447,405.619 301.947,411.786 303,420.5C 303.333,436.833 303.667,453.167 304,469.5C 305.288,473.578 308.122,475.912 312.5,476.5C 313.386,477.325 313.719,478.325 313.5,479.5 Z"/></g>
<g><path style="opacity:1" fill="#002b1e" d="M 389.5,474.5 C 392.112,472.948 393.445,470.614 393.5,467.5C 394.331,452.005 394.831,436.339 395,420.5C 395.667,436.5 395.667,452.5 395,468.5C 394.495,471.517 392.995,473.851 390.5,475.5C 389.893,475.376 389.56,475.043 389.5,474.5 Z"/></g>
<g><path style="opacity:1" fill="#002415" d="M 228.5,467.5 C 228.804,451.119 228.471,434.786 227.5,418.5C 227.435,418.062 227.601,417.728 228,417.5C 228.333,418.167 228.667,418.833 229,419.5C 229.828,435.672 229.661,451.672 228.5,467.5 Z"/></g>
<g><path style="opacity:1" fill="#022415" d="M 199.5,400.5 C 201.49,422.809 202.156,445.475 201.5,468.5C 200.804,447.138 200.137,424.471 199.5,400.5 Z"/></g>
<g><path style="opacity:1" fill="#002718" d="M 282.5,424.5 C 283.268,425.263 283.768,426.263 284,427.5C 284.827,441.006 284.66,454.34 283.5,467.5C 283.764,453.137 283.431,438.804 282.5,424.5 Z"/></g>
<g><path style="opacity:1" fill="#0a5345" d="M 464.5,400.5 C 473.984,399.94 483.317,400.773 492.5,403C 501.186,406.331 506.019,412.498 507,421.5C 500.961,423.09 494.794,424.09 488.5,424.5C 485.815,408.657 477.149,404.157 462.5,411C 455.539,418.374 452.205,427.208 452.5,437.5C 452.578,448.238 455.911,457.738 462.5,466C 474.9,473.714 486.9,473.047 498.5,464C 500.667,461.833 502.833,459.667 505,457.5C 509.386,458.996 510.386,461.663 508,465.5C 490.532,484.064 470.365,487.564 447.5,476C 434.49,463.967 429.656,449.133 433,431.5C 437.414,414.919 447.914,404.586 464.5,400.5 Z"/></g>
<g><path style="opacity:1" fill="#053225" d="M 556.5,450.5 C 554.108,447.402 551.942,444.069 550,440.5C 547,443.5 544,446.5 541,449.5C 540.5,455.825 540.334,462.158 540.5,468.5C 539.351,462.585 539.184,455.919 540,448.5C 543.047,445.117 546.38,442.117 550,439.5C 553.161,442.474 555.327,446.14 556.5,450.5 Z"/></g>
<g><path style="opacity:1" fill="#0d5649" d="M 199.5,400.5 C 200.137,424.471 200.804,447.138 201.5,468.5C 202.464,472.798 205.131,475.464 209.5,476.5C 209.804,477.15 210.137,477.817 210.5,478.5C 197.833,479.833 185.167,479.833 172.5,478.5C 174.184,477.85 175.517,476.85 176.5,475.5C 177.836,473.99 179.003,472.323 180,470.5C 180.667,453.167 180.667,435.833 180,418.5C 178.636,415.637 176.47,413.637 173.5,412.5C 172.571,411.311 172.238,409.978 172.5,408.5C 181.634,406.233 190.634,403.566 199.5,400.5 Z"/></g>
<g><path style="opacity:1" fill="#094f42" d="M 372.5,402.5 C 373.167,402.5 373.833,402.5 374.5,402.5C 374.167,405.167 373.833,407.833 373.5,410.5C 365.833,410.5 358.167,410.5 350.5,410.5C 350.04,428.569 350.54,446.569 352,464.5C 354.919,470.025 359.419,471.858 365.5,470C 369.384,469.059 373.051,467.559 376.5,465.5C 377.5,466.833 378.5,468.167 379.5,469.5C 367.844,482.746 353.844,485.913 337.5,479C 332.913,475.66 330.58,471.16 330.5,465.5C 330.333,447.164 330.5,428.83 331,410.5C 331.333,429.167 331.667,447.833 332,466.5C 332.333,463.5 332.667,460.5 333,457.5C 333.853,459.125 334.853,459.458 336,458.5C 337.803,462.335 339.136,462.669 340,459.5C 342.522,462.326 344.522,461.993 346,458.5C 346.667,459.833 347.333,459.833 348,458.5C 348.333,460.167 348.667,461.833 349,463.5C 348.267,445.514 348.434,427.514 349.5,409.5C 357.11,408.533 364.777,408.2 372.5,408.5C 372.649,407.448 372.483,406.448 372,405.5C 368.26,406.794 364.26,407.461 360,407.5C 356.167,407.333 352.333,407.167 348.5,407C 349.5,406.667 350.5,406.333 351.5,406C 349.059,405.964 347.059,405.131 345.5,403.5C 354.403,403.795 363.403,403.462 372.5,402.5 Z"/></g>
<g><path style="opacity:1" fill="#0a5447" d="M 163.5,456.5 C 161.863,461.397 161.196,469.063 161.5,479.5C 130.5,479.5 99.5,479.5 68.5,479.5C 70.7867,474.86 73.1201,470.193 75.5,465.5C 94.5834,435.234 113.917,405.068 133.5,375C 120.11,374.076 106.777,374.409 93.5,376C 85.8372,381.13 81.0039,388.297 79,397.5C 76.9592,398.423 74.7925,398.756 72.5,398.5C 72.175,390.981 72.5084,383.648 73.5,376.5C 73.3398,378.199 73.5065,379.866 74,381.5C 74.4992,376.845 74.6658,372.179 74.5,367.5C 100.194,367.838 123.194,367.504 143.5,366.5C 148.84,365.719 154.34,365.052 160,364.5C 161.662,364.388 162.829,365.054 163.5,366.5C 141.5,401.5 119.5,436.5 97.5,471.5C 111.544,472.928 125.544,472.762 139.5,471C 148.72,466.779 154.72,459.779 157.5,450C 159.81,449.503 162.143,449.337 164.5,449.5C 164.802,452.059 164.468,454.393 163.5,456.5 Z"/></g>
<g><path style="opacity:1" fill="#14594c" d="M 414.5,468.5 C 413.379,470.089 413.546,471.756 415,473.5C 417.198,475.621 419.698,477.288 422.5,478.5C 410.167,479.833 397.833,479.833 385.5,478.5C 386.77,477.712 387.77,476.712 388.5,475.5C 388.5,474.833 388.833,474.5 389.5,474.5C 389.56,475.043 389.893,475.376 390.5,475.5C 392.995,473.851 394.495,471.517 395,468.5C 395.667,452.5 395.667,436.5 395,420.5C 394.831,436.339 394.331,452.005 393.5,467.5C 393.667,450.83 393.5,434.163 393,417.5C 390.434,414.934 387.934,412.434 385.5,410C 394.647,405.563 404.314,402.396 414.5,400.5C 414.5,423.167 414.5,445.833 414.5,468.5 Z"/></g>
<g><path style="opacity:1" fill="#023728" d="M 163.5,456.5 C 163.269,464.505 162.935,472.505 162.5,480.5C 130.833,480.5 99.1667,480.5 67.5,480.5C 67.5,479.5 67.5,478.5 67.5,477.5C 69.6735,473.148 72.3401,469.148 75.5,465.5C 73.1201,470.193 70.7867,474.86 68.5,479.5C 99.5,479.5 130.5,479.5 161.5,479.5C 161.196,469.063 161.863,461.397 163.5,456.5 Z"/></g>
<g><path style="opacity:1" fill="#0c4537" d="M 176.5,475.5 C 175.517,476.85 174.184,477.85 172.5,478.5C 185.167,479.833 197.833,479.833 210.5,478.5C 210.137,477.817 209.804,477.15 209.5,476.5C 211.256,477.552 211.923,479.219 211.5,481.5C 198.167,481.5 184.833,481.5 171.5,481.5C 170.887,477.488 172.554,475.488 176.5,475.5 Z"/></g>
<g><path style="opacity:1" fill="#0b4537" d="M 249.5,472.5 C 251.615,474.891 254.281,476.224 257.5,476.5C 257.5,478.167 257.5,479.833 257.5,481.5C 244.5,481.5 231.5,481.5 218.5,481.5C 218.077,479.219 218.744,477.552 220.5,476.5C 220.938,476.435 221.272,476.601 221.5,477C 220.692,477.308 220.025,477.808 219.5,478.5C 231.82,479.666 244.153,479.833 256.5,479C 254.999,477.748 253.332,476.748 251.5,476C 250.177,475.184 249.511,474.017 249.5,472.5 Z"/></g>
<g><path style="opacity:1" fill="#0d4537" d="M 282.5,471.5 C 281.203,474.797 278.87,477.13 275.5,478.5C 288.149,479.499 300.816,479.832 313.5,479.5C 300.876,481.481 287.876,482.148 274.5,481.5C 274.215,479.712 274.548,478.045 275.5,476.5C 278.13,475.196 280.463,473.53 282.5,471.5 Z"/></g>
<g><path style="opacity:1" fill="#023728" d="M 414.5,468.5 C 415.454,472.788 418.121,475.454 422.5,476.5C 423.429,477.689 423.762,479.022 423.5,480.5C 410.5,480.5 397.5,480.5 384.5,480.5C 384.5,479.167 384.5,477.833 384.5,476.5C 385.833,476.167 387.167,475.833 388.5,475.5C 387.77,476.712 386.77,477.712 385.5,478.5C 397.833,479.833 410.167,479.833 422.5,478.5C 419.698,477.288 417.198,475.621 415,473.5C 413.546,471.756 413.379,470.089 414.5,468.5 Z"/></g>
<g><path style="opacity:1" fill="#246c60" d="M 67.5,477.5 C 67.5,478.5 67.5,479.5 67.5,480.5C 99.1667,480.5 130.833,480.5 162.5,480.5C 130.671,481.498 98.671,481.832 66.5,481.5C 66.2322,479.901 66.5655,478.568 67.5,477.5 Z"/></g>
<g><path style="opacity:1" fill="#2b6d62" d="M 384.5,476.5 C 384.5,477.833 384.5,479.167 384.5,480.5C 397.5,480.5 410.5,480.5 423.5,480.5C 410.344,481.496 397.01,481.829 383.5,481.5C 383.216,479.585 383.549,477.919 384.5,476.5 Z"/></g>
<g><path style="opacity:1" fill="#317167" d="M 600.5,476.5 C 601.451,477.919 601.784,479.585 601.5,481.5C 593.981,481.825 586.648,481.492 579.5,480.5C 586.5,480.5 593.5,480.5 600.5,480.5C 600.5,479.167 600.5,477.833 600.5,476.5 Z"/></g>
</svg>
